<?xml version="1.0"?><svg width="1440" height="1440" xmlns="http://www.w3.org/2000/svg">

 <g>
  <title>Layer 1</title>
  <g id="svg_372">
   <g id="svg_373">
    <path id="svg_374" d="m860.205811,766.662231c-245.485352,-19.703552 -250.435547,258.656494 -396.742676,258.656494c-125.338501,0 -111.469299,-134.672241 -104.924011,-173.254578c14.512207,-1.083008 33.82666,-6.354675 57.562317,-21.226624c63.430786,-39.754211 25.047546,-117.142761 25.047546,-117.142761c-1.239807,27.090698 -37.198669,29.557373 -37.198669,29.557373c-67.21759,3.13092 -74.824768,55.760132 -77.079956,83.752075c-8.821655,-20.858398 -29.930054,-59.026001 -64.962402,-55.798035c-47.33197,4.358032 -37.575195,23.262085 -88.321594,-2.910828c0,0 -7.840088,75.535645 70.724976,94.723267c20.41864,4.988159 36.500671,4.781067 49.007446,2.09845c-4.704895,403.63916 382.877625,495.798218 621.449646,394.220703c274.793335,-116.990601 190.922729,-472.971985 -54.562622,-492.675537z" fill="#64C3A3"/>
    <path id="svg_375" d="m864.982422,720.802734c7.704468,-16.149719 62.254517,-127.855774 162.088623,-102.093384c220.573364,56.927795 181.555298,-233.008331 7.679199,-188.219238c-136.224731,35.0961 -177.214355,280.826782 -180.544067,302.908203c0,0 -0.380981,2.970276 0.807983,3.596497c4.692383,2.441101 9.968262,-16.192078 9.968262,-16.192078z" fill="#64C3A3"/>
    <path id="svg_376" d="m857.451416,577.127319c9.608521,-40.452271 -39.618896,-371.42038 150.779297,-321.841736c96.309692,25.076965 71.211548,175.077728 -27.12915,178.475098c-92.349365,3.185883 -99.87207,103.587097 -114.4646,142.444153c0,0 -1.866089,6.431152 -5.525757,6.092651c0,0 -4.810547,-0.342651 -3.65979,-5.170166z" fill="#64C3A3"/>
    <path id="svg_377" d="m848.10083,733.542175c0,0 30.623779,-664.66066 -317.01416,-522.516815c0,0 -160.629089,74.431213 -59.986694,240.276917c39.432739,64.970917 130.085449,64.865082 197.412964,52.79837c0,0 57.587646,-12.523804 96.258911,33.602478c38.679688,46.125977 67.788696,184.631226 73.05188,194.887146c5.923462,11.575806 10.2771,0.951904 10.2771,0.951904z" fill="#64C3A3"/>
   </g>
   <g id="svg_378">
    <path id="svg_379" d="m854.356079,975.467529c11.178345,15.392029 27.953979,19.589417 37.46106,9.36322c9.494385,-10.272766 8.114868,-31.081055 -3.071777,-46.486023c-11.207764,-15.438477 -27.97937,-19.614685 -37.46521,-9.37146c-9.48584,10.256226 -8.131836,31.055237 3.075928,46.494263z" fill="#003f7f"/>
    <path id="svg_380" d="m1029.679077,1159.404907c0,0 -131.803223,46.917236 -166.399902,-84.179443c0,0 -2.390503,-4.383423 0.668335,-6.663574c3.825073,-2.84314 9.62146,0.503052 9.62146,0.503052c30.302246,127.758667 153.182251,79.525391 153.182251,79.525391s5.868408,1.379639 6.777954,3.62207c0.90979,2.237915 -0.080322,6.718872 -3.850098,7.192505z" fill="#003f7f"/>
    <path id="svg_381" d="m868.982422,716.802734c7.704468,-16.149719 62.254517,-127.855774 162.088623,-102.093384c220.573364,56.927795 181.555298,-233.008331 7.679199,-188.219238c-136.224731,35.0961 -177.214355,280.826782 -180.544067,302.908203c0,0 -0.380981,2.970276 0.807983,3.596497c4.692383,2.441101 9.968262,-16.192078 9.968262,-16.192078z" fill="#003f7f"/>
    <path id="svg_382" d="m852.10083,729.542175c0,0 30.623779,-664.66066 -317.01416,-522.516815c0,0 -160.629089,74.431213 -59.986694,240.276917c39.432739,64.970917 130.085449,64.865082 197.412964,52.79837c0,0 57.587646,-12.523804 96.258911,33.602478c38.679688,46.125977 67.788696,184.631226 73.05188,194.887146c5.923462,11.575806 10.2771,0.951904 10.2771,0.951904z" fill="#003f7f"/>
   </g>
  </g>
 </g>
</svg>